<svg id="svg" 
    xmlns="http://www.w3.org/2000/svg" 
    xmlns:xlink="http://www.w3.org/1999/xlink" width="400" height="400" viewBox="0, 0, 400,400">
    <g id="svgg">
        <path id="path0" d="M125.750 66.447 C 98.055 68.213,74.882 78.183,54.948 96.910 C 32.127 118.348,20.277 145.010,19.721 176.167 C 19.162 207.562,30.607 234.744,53.594 256.610 C 76.360 278.266,101.960 288.569,133.000 288.569 C 156.133 288.569,175.435 283.108,193.800 271.367 C 199.686 267.604,210.601 258.999,210.800 257.964 C 210.829 257.818,210.182 256.098,209.363 254.141 C 207.882 250.599,203.501 240.054,196.393 222.917 C 194.340 217.967,192.604 213.781,192.536 213.615 C 192.437 213.375,192.211 213.626,191.415 214.865 C 181.166 230.819,163.202 242.617,144.667 245.567 C 118.950 249.660,94.806 240.150,78.065 219.333 C 52.529 187.580,62.047 139.506,98.167 117.795 C 112.588 109.127,130.740 106.330,148.390 110.058 C 149.438 110.280,149.523 110.277,149.449 110.024 C 149.404 109.874,145.563 100.638,140.913 89.500 C 136.263 78.362,132.194 68.594,131.871 67.792 L 131.283 66.333 128.933 66.363 C 127.641 66.380,126.208 66.417,125.750 66.447 M163.104 69.458 C 163.521 70.444,163.904 71.362,163.957 71.500 C 164.009 71.637,164.817 73.587,165.753 75.833 C 166.689 78.079,168.732 82.992,170.294 86.750 C 177.093 103.113,183.570 118.686,184.089 119.917 C 184.398 120.650,186.348 125.337,188.422 130.333 C 190.496 135.329,192.446 140.017,192.754 140.750 C 193.063 141.483,194.547 145.046,196.052 148.667 C 197.557 152.287,201.284 161.250,204.334 168.583 C 207.385 175.917,212.609 188.479,215.945 196.500 C 219.281 204.521,222.188 211.496,222.405 212.000 C 222.623 212.504,223.794 215.317,225.008 218.250 C 228.713 227.202,236.242 245.298,240.506 255.500 C 241.253 257.287,242.190 259.537,242.587 260.500 C 242.985 261.462,243.682 263.150,244.137 264.250 C 244.591 265.350,245.636 267.862,246.457 269.833 C 247.279 271.804,249.254 276.548,250.846 280.376 L 253.740 287.335 274.140 287.292 L 294.541 287.250 297.275 280.667 C 298.779 277.046,300.228 273.558,300.496 272.917 C 300.764 272.275,301.477 270.550,302.080 269.083 C 302.683 267.617,303.322 266.079,303.500 265.667 C 303.678 265.254,304.305 263.754,304.893 262.333 C 306.106 259.403,309.801 250.488,313.079 242.583 C 314.296 239.650,316.284 234.850,317.497 231.917 C 318.710 228.983,319.911 226.096,320.165 225.500 C 320.678 224.299,324.645 214.727,325.553 212.500 C 325.871 211.721,327.160 208.608,328.418 205.583 C 329.675 202.558,331.061 199.221,331.496 198.167 C 331.932 197.112,334.033 192.050,336.166 186.917 C 338.299 181.783,340.212 177.171,340.417 176.667 C 340.622 176.162,342.271 172.188,344.081 167.833 C 345.892 163.479,347.744 159.017,348.198 157.917 C 350.335 152.738,350.877 151.428,351.751 149.333 C 352.267 148.096,353.012 146.296,353.408 145.333 C 353.803 144.371,355.608 140.021,357.419 135.667 C 359.230 131.313,360.879 127.337,361.084 126.833 C 361.288 126.329,363.388 121.267,365.750 115.583 C 368.112 109.900,370.213 104.837,370.418 104.333 C 370.623 103.829,373.172 97.679,376.083 90.667 C 378.994 83.654,381.543 77.504,381.749 77.000 C 381.955 76.496,382.704 74.696,383.414 73.000 C 385.037 69.128,385.500 67.972,385.500 67.802 C 385.500 67.727,374.794 67.668,361.708 67.669 L 337.917 67.672 337.267 69.294 C 336.910 70.187,335.965 72.492,335.166 74.417 C 334.368 76.342,332.799 80.129,331.681 82.833 C 330.562 85.537,329.242 88.725,328.747 89.917 C 328.251 91.108,326.752 94.746,325.415 98.000 C 324.077 101.254,322.533 105.004,321.983 106.333 C 321.433 107.662,320.765 109.275,320.500 109.917 C 320.235 110.558,319.567 112.171,319.017 113.500 C 318.467 114.829,316.285 120.117,314.167 125.250 C 312.050 130.383,309.912 135.558,309.416 136.750 C 308.921 137.942,306.971 142.667,305.083 147.250 C 303.195 151.833,301.316 156.390,300.908 157.375 C 300.500 158.360,299.833 159.973,299.425 160.958 C 299.017 161.944,297.139 166.500,295.252 171.083 C 293.364 175.667,291.647 179.829,291.435 180.333 C 290.786 181.879,290.041 183.681,289.436 185.167 L 288.859 186.583 273.962 186.626 L 259.066 186.668 258.510 185.293 C 257.999 184.028,257.460 182.722,254.917 176.583 C 253.580 173.356,250.341 165.516,247.585 158.833 C 244.966 152.486,241.727 144.648,240.215 141.000 C 238.611 137.133,238.070 135.822,237.082 133.417 C 236.554 132.133,235.500 129.583,234.739 127.750 C 233.978 125.917,231.360 119.579,228.922 113.667 C 224.749 103.546,224.006 101.749,223.067 99.500 C 222.856 98.996,222.377 97.833,222.002 96.917 C 221.627 96.000,221.175 94.912,220.998 94.500 C 220.820 94.087,219.770 91.537,218.664 88.833 C 217.558 86.129,216.479 83.504,216.265 83.000 C 216.051 82.496,215.481 81.108,214.998 79.917 C 214.100 77.701,212.474 73.764,211.349 71.083 C 211.003 70.258,210.544 69.152,210.329 68.625 L 209.939 67.667 186.142 67.667 L 162.346 67.667 163.104 69.458 M36.833 319.917 L 36.833 333.667 202.583 333.667 L 368.333 333.667 368.333 319.917 L 368.333 306.167 202.583 306.167 L 36.833 306.167 36.833 319.917 " stroke="none" fill="#ffffff" fill-rule="evenodd"></path>
        <path id="path1" d="M0.000 200.000 L 0.000 400.000 200.000 400.000 L 400.000 400.000 400.000 200.000 L 400.000 0.000 200.000 0.000 L 0.000 0.000 0.000 200.000 M131.871 67.792 C 132.194 68.594,136.263 78.362,140.913 89.500 C 145.563 100.638,149.404 109.874,149.449 110.024 C 149.523 110.277,149.438 110.280,148.390 110.058 C 130.740 106.330,112.588 109.127,98.167 117.795 C 62.047 139.506,52.529 187.580,78.065 219.333 C 94.806 240.150,118.950 249.660,144.667 245.567 C 163.202 242.617,181.166 230.819,191.415 214.865 C 192.211 213.626,192.437 213.375,192.536 213.615 C 192.604 213.781,194.340 217.967,196.393 222.917 C 203.501 240.054,207.882 250.599,209.363 254.141 C 210.182 256.098,210.829 257.818,210.800 257.964 C 210.601 258.999,199.686 267.604,193.800 271.367 C 175.435 283.108,156.133 288.569,133.000 288.569 C 101.960 288.569,76.360 278.266,53.594 256.610 C 30.607 234.744,19.162 207.562,19.721 176.167 C 20.233 147.453,30.127 123.006,49.656 102.202 C 69.334 81.239,93.906 69.198,122.000 66.754 C 125.870 66.417,126.197 66.398,128.933 66.363 L 131.283 66.333 131.871 67.792 M210.329 68.625 C 210.544 69.152,211.003 70.258,211.349 71.083 C 212.474 73.764,214.100 77.701,214.998 79.917 C 215.481 81.108,216.051 82.496,216.265 83.000 C 216.479 83.504,217.558 86.129,218.664 88.833 C 219.770 91.537,220.820 94.087,220.998 94.500 C 221.175 94.912,221.627 96.000,222.002 96.917 C 222.377 97.833,222.856 98.996,223.067 99.500 C 224.006 101.749,224.749 103.546,228.922 113.667 C 231.360 119.579,233.978 125.917,234.739 127.750 C 235.500 129.583,236.554 132.133,237.082 133.417 C 238.070 135.822,238.611 137.133,240.215 141.000 C 241.727 144.648,244.966 152.486,247.585 158.833 C 250.341 165.516,253.580 173.356,254.917 176.583 C 257.460 182.722,257.999 184.028,258.510 185.293 L 259.066 186.668 273.962 186.626 L 288.859 186.583 289.436 185.167 C 290.041 183.681,290.786 181.879,291.435 180.333 C 291.647 179.829,293.364 175.667,295.252 171.083 C 297.139 166.500,299.017 161.944,299.425 160.958 C 299.833 159.973,300.500 158.360,300.908 157.375 C 301.316 156.390,303.195 151.833,305.083 147.250 C 306.971 142.667,308.921 137.942,309.416 136.750 C 309.912 135.558,312.050 130.383,314.167 125.250 C 316.285 120.117,318.467 114.829,319.017 113.500 C 319.567 112.171,320.235 110.558,320.500 109.917 C 320.765 109.275,321.433 107.662,321.983 106.333 C 322.533 105.004,324.077 101.254,325.415 98.000 C 326.752 94.746,328.251 91.108,328.747 89.917 C 329.242 88.725,330.562 85.537,331.681 82.833 C 332.799 80.129,334.368 76.342,335.166 74.417 C 335.965 72.492,336.910 70.187,337.267 69.294 L 337.917 67.672 361.708 67.669 C 374.794 67.668,385.500 67.727,385.500 67.802 C 385.500 67.972,385.037 69.128,383.414 73.000 C 382.704 74.696,381.955 76.496,381.749 77.000 C 381.543 77.504,378.994 83.654,376.083 90.667 C 373.172 97.679,370.623 103.829,370.418 104.333 C 370.213 104.837,368.112 109.900,365.750 115.583 C 363.388 121.267,361.288 126.329,361.084 126.833 C 360.879 127.337,359.230 131.313,357.419 135.667 C 355.608 140.021,353.803 144.371,353.408 145.333 C 353.012 146.296,352.267 148.096,351.751 149.333 C 350.877 151.428,350.335 152.738,348.198 157.917 C 347.744 159.017,345.892 163.479,344.081 167.833 C 342.271 172.188,340.622 176.162,340.417 176.667 C 340.212 177.171,338.299 181.783,336.166 186.917 C 334.033 192.050,331.932 197.112,331.496 198.167 C 331.061 199.221,329.675 202.558,328.418 205.583 C 327.160 208.608,325.871 211.721,325.553 212.500 C 324.645 214.727,320.678 224.299,320.165 225.500 C 319.911 226.096,318.710 228.983,317.497 231.917 C 316.284 234.850,314.296 239.650,313.079 242.583 C 309.801 250.488,306.106 259.403,304.893 262.333 C 304.305 263.754,303.678 265.254,303.500 265.667 C 303.322 266.079,302.683 267.617,302.080 269.083 C 301.477 270.550,300.764 272.275,300.496 272.917 C 300.228 273.558,298.779 277.046,297.275 280.667 L 294.541 287.250 274.140 287.292 L 253.740 287.335 250.846 280.376 C 249.254 276.548,247.279 271.804,246.457 269.833 C 245.636 267.862,244.591 265.350,244.137 264.250 C 243.682 263.150,242.985 261.462,242.587 260.500 C 242.190 259.537,241.253 257.287,240.506 255.500 C 236.242 245.298,228.713 227.202,225.008 218.250 C 223.794 215.317,222.623 212.504,222.405 212.000 C 222.188 211.496,219.281 204.521,215.945 196.500 C 212.609 188.479,207.385 175.917,204.334 168.583 C 201.284 161.250,197.557 152.287,196.052 148.667 C 194.547 145.046,193.063 141.483,192.754 140.750 C 192.446 140.017,190.496 135.329,188.422 130.333 C 186.348 125.337,184.398 120.650,184.089 119.917 C 183.570 118.686,177.093 103.113,170.294 86.750 C 168.732 82.992,166.689 78.079,165.753 75.833 C 164.817 73.587,164.009 71.637,163.957 71.500 C 163.904 71.362,163.521 70.444,163.104 69.458 L 162.346 67.667 186.142 67.667 L 209.939 67.667 210.329 68.625 M368.333 319.917 L 368.333 333.667 202.583 333.667 L 36.833 333.667 36.833 319.917 L 36.833 306.167 202.583 306.167 L 368.333 306.167 368.333 319.917 " stroke="none" fill="none" fill-rule="evenodd"></path>
    </g>
</svg>
