<svg xmlns="http://www.w3.org/2000/svg" version="1.0" width="32.000000pt" height="32.000000pt" viewBox="0 0 32.000000 32.000000" preserveAspectRatio="xMidYMid meet">
    <g transform="translate(0.000000,32.000000) scale(0.100000,-0.100000)" fill="#ffffff" stroke="none">
        <path d="M60 215 l-55 -55 58 -57 c53 -54 58 -56 74 -41 14 15 14 19 2 34 -8 11 -9 15 -2 11 8 -5 22 10 41 43 29 50 29 50 47 30 18 -20 18 -21 -20 -60 -37 -38 -38 -41 -22 -57 16 -17 20 -14 75 40 l57 57 -57 57 c-54 54 -59 56 -75 41 -14 -14 -14 -20 -3 -33 9 -11 10 -15 2 -13 -7 2 -25 -18 -40 -45 -28 -47 -29 -47 -47 -27 -18 20 -18 21 20 60 32 33 36 42 25 55 -7 8 -15 15 -19 15 -4 0 -31 -25 -61 -55z"></path>
    </g>
</svg>
